<svg width="12" height="12" viewBox="0 0 12 12" fill="none" xmlns="http://www.w3.org/2000/svg">
<path d="M9.75021 3.81467L6.00021 7.47092L2.25021 3.81467C2.17996 3.74442 2.09796 3.70929 2.00421 3.70929C1.91046 3.70929 1.82846 3.74442 1.75821 3.81467C1.68796 3.88492 1.65283 3.96692 1.65283 4.06067C1.65283 4.15442 1.68408 4.23254 1.74658 4.29504L5.74258 8.18567C5.81283 8.25592 5.89883 8.29104 6.00058 8.29104C6.10233 8.29104 6.18833 8.25592 6.25858 8.18567L10.2546 4.30667C10.3171 4.23642 10.3483 4.15242 10.3483 4.05467C10.3483 3.95692 10.3132 3.87492 10.243 3.80867C10.1727 3.74242 10.0907 3.70917 9.99696 3.70892C9.90321 3.70867 9.82121 3.74379 9.75096 3.81429L9.75021 3.81467Z" fill="currentColor"/>
</svg>
